# Blender v2.77 (sub 0) OBJ File: ''
# www.blender.org
o Cube
v 1.000000 -1.000000 -1.000000
v 1.000000 -1.000000 1.000000
v -1.000000 -1.000000 1.000000
v -1.000000 -1.000000 -1.000000
v 1.000000 1.000000 -0.999999
v 0.999999 1.000000 1.000001
v -1.000000 1.000000 1.000000
v -1.000000 1.000000 -1.000000
v -0.000001 -0.000000 3.074288
v 1.000000 -1.000000 -2.776406
v -0.999999 -1.000000 -2.776406
v 1.000001 1.000000 -2.776405
v -1.000000 1.000000 -2.776406
v 1.000001 -0.999999 -3.985804
v -0.999999 -0.999999 -3.985805
v 1.000001 1.000001 -3.985804
v -0.999999 1.000001 -3.985804
v 1.000001 -0.999999 -5.324734
v -0.999999 -0.999999 -5.324734
v 1.000001 1.000001 -5.324733
v -0.999999 1.000001 -5.324734
v -0.000001 1.980618 -0.960202
v -0.000001 0.980618 3.074288
v 0.000001 1.929741 -3.985804
v 0.000001 1.929741 -5.324733
v 6.000000 -0.000001 -0.999999
v 6.000000 -0.000001 -2.776404
v -6.000000 -0.000001 -1.000001
v -6.000000 -0.000001 -2.776407
v -2.999999 0.000000 -3.985805
v -2.999999 0.000000 -5.324734
v 3.000001 0.000000 -3.985804
v 3.000001 0.000000 -5.324733
vn 0.0000 -1.0000 0.0000
vn 1.0000 -0.0000 0.0000
vn 0.0000 -0.9008 0.4343
vn -1.0000 -0.0000 -0.0000
vn 0.7002 0.7140 0.0000
vn -0.7002 0.7140 -0.0000
vn -0.0000 0.9008 0.4343
vn -0.9008 -0.0000 0.4343
vn 0.9008 0.0000 0.4343
vn 0.0000 0.0000 -1.0000
vn 0.1961 -0.9806 -0.0000
vn -0.0000 -0.0000 1.0000
vn -0.0000 1.0000 0.0000
vn 0.4472 -0.8944 -0.0000
vn 0.0000 0.8799 -0.4751
vn -0.0000 0.8943 0.4474
vn 0.6809 0.7324 0.0000
vn -0.6809 0.7324 0.0000
vn 0.1961 0.9806 0.0000
vn -0.1961 0.9806 0.0000
vn -0.1961 -0.9806 -0.0000
vn -0.4472 -0.8944 -0.0000
vn -0.4472 0.8944 -0.0000
vn 0.4472 0.8944 0.0000
s off
f 2//1 4//1 1//1
f 5//2 2//2 1//2
f 3//3 2//3 9//3
f 3//4 8//4 4//4
f 6//5 5//5 22//5
f 13//6 8//6 22//6
f 6//7 7//7 9//7
f 7//8 3//8 9//8
f 2//9 6//9 9//9
f 13//4 15//4 11//4
f 13//10 11//10 29//10
f 1//1 11//1 10//1
f 10//11 26//11 1//11
f 17//12 16//12 24//12
f 10//1 15//1 14//1
f 12//13 17//13 13//13
f 10//2 16//2 12//2
f 18//10 21//10 20//10
f 18//14 32//14 14//14
f 21//10 19//10 31//10
f 14//1 19//1 18//1
f 12//15 13//15 22//15
f 7//16 6//16 22//16
f 5//5 12//5 22//5
f 8//6 7//6 22//6
f 20//17 24//17 16//17
f 17//18 25//18 21//18
f 20//10 21//10 25//10
f 10//10 12//10 27//10
f 5//12 1//12 26//12
f 5//19 27//19 12//19
f 4//12 8//12 28//12
f 13//20 28//20 8//20
f 4//21 29//21 11//21
f 15//22 31//22 19//22
f 15//12 17//12 30//12
f 17//23 31//23 30//23
f 16//12 14//12 32//12
f 16//24 33//24 20//24
f 18//10 20//10 33//10
f 2//1 3//1 4//1
f 5//2 6//2 2//2
f 3//4 7//4 8//4
f 13//4 17//4 15//4
f 1//1 4//1 11//1
f 10//11 27//11 26//11
f 10//1 11//1 15//1
f 12//13 16//13 17//13
f 10//2 14//2 16//2
f 18//10 19//10 21//10
f 18//14 33//14 32//14
f 14//1 15//1 19//1
f 20//17 25//17 24//17
f 17//18 24//18 25//18
f 5//19 26//19 27//19
f 13//20 29//20 28//20
f 4//21 28//21 29//21
f 15//22 30//22 31//22
f 17//23 21//23 31//23
f 16//24 32//24 33//24
